HIERARCHY
ROOT Hips
{
	OFFSET	0.00	0.00	0.00
	CHANNELS 6 Xposition Yposition Zposition Zrotation Xrotation Yrotation
	JOINT LeftUpLeg
	{
		OFFSET	 0.126116	-0.014019	-0.065224
		CHANNELS 3 Zrotation Xrotation Yrotation
		JOINT LeftLeg
		{
			OFFSET	 0.000000	 0.000000	 0.569914
			CHANNELS 3 Zrotation Xrotation Yrotation
			JOINT LeftFoot
			{
				OFFSET	 0.000000	 0.000000	 0.544423
				CHANNELS 3 Zrotation Xrotation Yrotation
				JOINT LeftToeBase
				{
					OFFSET	 0.000000	 0.000000	 0.207117
					CHANNELS 3 Zrotation Xrotation Yrotation
					End Site
					{
						OFFSET	 0.000000	 0.000000	 0.207117
					}
				}
			}
		}
	}
	JOINT RightUpLeg
	{
		OFFSET	-0.124023	-0.008373	-0.065224
		CHANNELS 3 Zrotation Xrotation Yrotation
		JOINT RightLeg
		{
			OFFSET	 0.000000	 0.000000	 0.570047
			CHANNELS 3 Zrotation Xrotation Yrotation
			JOINT RightFoot
			{
				OFFSET	 0.000000	 0.000000	 0.544354
				CHANNELS 3 Zrotation Xrotation Yrotation
				JOINT RightToeBase
				{
					OFFSET	 0.000000	 0.000000	 0.207540
					CHANNELS 3 Zrotation Xrotation Yrotation
					End Site
					{
						OFFSET	 0.000000	 0.000000	 0.207540
					}
				}
			}
		}
	}
	JOINT Spine
	{
		OFFSET	 0.000184	-0.007763	 0.117403
		CHANNELS 3 Zrotation Xrotation Yrotation
		JOINT Spine1
		{
			OFFSET	 0.000000	 0.000000	 0.137269
			CHANNELS 3 Zrotation Xrotation Yrotation
			JOINT Spine2
			{
				OFFSET	 0.000000	 0.000000	 0.156879
				CHANNELS 3 Zrotation Xrotation Yrotation
				JOINT LeftShoulder
				{
					OFFSET	 0.080501	-0.002496	 0.160144
					CHANNELS 3 Zrotation Xrotation Yrotation
					JOINT LeftArm
					{
						OFFSET	 0.000000	 0.000000	 0.164363
						CHANNELS 3 Zrotation Xrotation Yrotation
						JOINT LeftForeArm
						{
							OFFSET	 0.000000	 0.000000	 0.364576
							CHANNELS 3 Zrotation Xrotation Yrotation
							JOINT LeftHand
							{
								OFFSET	 0.000000	 0.000000	 0.360812
								CHANNELS 3 Zrotation Xrotation Yrotation
								JOINT LeftHandIndex1
								{
									OFFSET	 0.000000	 0.000000	 0.086006
									CHANNELS 3 Zrotation Xrotation Yrotation
									JOINT LeftHandIndex2
									{
										OFFSET	 0.000000	 0.000000	 0.047236
										CHANNELS 3 Zrotation Xrotation Yrotation
										JOINT LeftHandIndex3
										{
											OFFSET	-0.004284	-0.000551	 0.038166
											CHANNELS 3 Zrotation Xrotation Yrotation
											End Site
											{
												OFFSET	-0.004284	-0.000551	 0.038166
											}
										}
									}
								}
							}
						}
					}
				}
				JOINT Neck
				{
					OFFSET	 0.000000	 0.000000	 0.176489
					CHANNELS 3 Zrotation Xrotation Yrotation
					JOINT Head
					{
						OFFSET	 0.000000	-0.001747	 0.077940
						CHANNELS 3 Zrotation Xrotation Yrotation
						End Site
						{
							OFFSET	 0.000000	-0.001747	 0.077940
						}
					}
				}
				JOINT RightShoulder
				{
					OFFSET	-0.080363	 0.000306	 0.159706
					CHANNELS 3 Zrotation Xrotation Yrotation
					JOINT RightArm
					{
						OFFSET	 0.000000	 0.000000	 0.164196
						CHANNELS 3 Zrotation Xrotation Yrotation
						JOINT RightForeArm
						{
							OFFSET	 0.000000	 0.000000	 0.365611
							CHANNELS 3 Zrotation Xrotation Yrotation
							JOINT RightHand
							{
								OFFSET	 0.000000	 0.000000	 0.360648
								CHANNELS 3 Zrotation Xrotation Yrotation
								JOINT RightHandIndex1
								{
									OFFSET	 0.000000	 0.000000	 0.069977
									CHANNELS 3 Zrotation Xrotation Yrotation
									JOINT RightHandIndex2
									{
										OFFSET	 0.000000	 0.000000	 0.052305
										CHANNELS 3 Zrotation Xrotation Yrotation
										JOINT RightHandIndex3
										{
											OFFSET	 0.009002	-0.000782	 0.042196
											CHANNELS 3 Zrotation Xrotation Yrotation
											End Site
											{
												OFFSET	 0.009002	-0.000782	 0.042196
											}
										}
									}
								}
							}
						}
					}
				}
			}
		}
	}
}
MOTION
Frames:    12
Frame Time: 0.03333334
-0.000388	 0.019743	 1.271238	 0.003625	 0.009233	-0.051836	-11.747430	-1.621334	 179.798800	 1.471367	-12.108740	-0.707172	-4.168575	 71.598180	-2.230237	-2.385833	 28.452760	 0.000004	 11.619550	-2.129627	-179.669000	-1.450173	-12.724950	 0.730663	 4.138549	 71.731130	 2.099834	 2.384658	 28.388730	 0.000004	 1.242487	 2.713419	 0.003203	 0.645715	 3.681079	 0.325504	-1.939617	-4.682993	-0.458682	-91.776190	 78.527470	-180.000000	 64.803070	 42.564690	-55.495040	-7.775645	 4.198658	-10.553940	-30.163550	-10.268680	-4.420707	-2.635965	 4.993658	 6.788941	-5.165319	 0.784187	 3.516649	-5.225038	 0.466231	 0.424329	-0.000002	-3.783157	-0.089647	-1.873825	 5.020198	 0.082137	 89.782060	 78.203900	-180.000000	-63.864840	 41.726150	 54.363300	 7.191494	 5.741373	 13.347160	 30.304840	-11.132040	 9.010852	 6.112037	 4.509576	-0.364401	 4.968462	 1.518543	-9.347576	 5.168945	 0.703820	 2.021906
-0.000387	 0.019743	 1.271236	 0.003627	 0.009228	-0.051827	-11.759900	-1.625037	 179.800000	 1.471265	-12.116670	-0.707652	-4.169842	 71.602550	-2.228897	-2.385833	 28.452760	 0.000004	 11.632020	-2.133196	-179.670200	-1.450079	-12.732660	 0.731118	 4.139938	 71.735400	 2.098370	 2.384658	 28.388730	 0.000004	 1.242486	 2.713581	 0.003193	 0.645709	 3.680517	 0.325510	-1.939612	-4.682280	-0.458667	-91.776240	 78.527450	-180.000000	 64.796810	 42.566280	-55.486770	-7.773988	 4.199789	-10.556800	-30.166970	-10.312660	-4.421318	-2.635965	 4.993658	 6.788941	-5.165319	 0.784187	 3.516649	-5.225038	 0.466231	 0.424329	-0.000002	-3.783157	-0.089647	-1.873830	 5.020512	 0.082142	 89.782110	 78.203850	 180.000000	-63.808950	 41.686290	 54.414410	 7.122326	 5.724915	 13.353810	 30.278880	-11.208250	 8.991583	 6.112037	 4.509576	-0.364401	 4.968462	 1.518543	-9.347576	 5.168945	 0.703820	 2.021906
-0.000387	 0.019745	 1.271235	 0.003628	 0.009227	-0.051794	-11.782220	-1.631862	 179.802200	 1.471083	-12.131270	-0.708526	-4.172223	 71.610630	-2.226421	-2.385833	 28.452760	 0.000004	 11.654380	-2.139566	-179.672400	-1.449893	-12.746420	 0.731935	 4.142456	 71.742970	 2.095771	 2.384658	 28.388730	 0.000004	 1.242491	 2.713865	 0.003169	 0.645703	 3.679557	 0.325495	-1.939600	-4.681044	-0.458627	-91.776180	 78.527450	-180.000000	 64.784000	 42.569340	-55.469370	-7.770642	 4.202326	-10.563250	-30.173550	-10.396220	-4.422491	-2.635965	 4.993658	 6.788941	-5.165319	 0.784187	 3.516649	-5.225038	 0.466231	 0.424329	-0.000002	-3.783157	-0.089647	-1.873834	 5.021137	 0.082153	 89.782140	 78.203870	 180.000000	-63.736020	 41.560010	 54.560220	 6.958442	 5.673461	 13.341450	 30.278320	-11.398160	 8.932546	 6.112037	 4.509576	-0.364401	 4.968462	 1.518543	-9.347576	 5.168945	 0.703820	 2.021906
-0.000385	 0.019747	 1.271239	 0.003629	 0.009225	-0.051797	-11.822940	-1.644030	 179.806300	 1.470750	-12.157280	-0.710096	-4.176462	 71.625020	-2.222013	-2.385833	 28.452760	 0.000004	 11.695070	-2.151150	-179.676200	-1.449568	-12.771420	 0.733420	 4.146948	 71.756720	 2.091036	 2.384658	 28.388730	 0.000004	 1.242489	 2.714391	 0.003153	 0.645686	 3.677742	 0.325519	-1.939549	-4.678734	-0.458572	-91.776140	 78.527470	 179.999900	 64.755910	 42.575970	-55.432310	-7.763688	 4.206433	-10.573710	-30.186810	-10.564780	-4.424909	-2.635965	 4.993658	 6.788941	-5.165319	 0.784187	 3.516649	-5.225038	 0.466231	 0.424329	-0.000002	-3.783157	-0.089647	-1.873832	 5.022191	 0.082170	 89.782120	 78.203900	 180.000000	-63.628530	 41.221510	 54.970630	 6.591455	 5.521486	 13.227160	 30.360250	-11.850030	 8.779611	 6.112037	 4.509576	-0.364401	 4.968462	 1.518543	-9.347576	 5.168945	 0.703820	 2.021906
-0.000384	 0.019750	 1.271250	 0.003628	 0.009216	-0.051792	-11.861450	-1.655733	 179.810200	 1.470434	-12.182290	-0.711601	-4.180508	 71.638860	-2.217773	-2.385833	 28.452760	 0.000004	 11.733660	-2.162071	-179.679900	-1.449255	-12.795020	 0.734821	 4.151239	 71.769760	 2.086580	 2.384658	 28.388730	 0.000004	 1.242486	 2.714887	 0.003137	 0.645665	 3.676040	 0.325519	-1.939516	-4.676556	-0.458508	-91.776190	 78.527450	 180.000000	 64.722500	 42.583030	-55.388000	-7.755878	 4.210823	-10.584980	-30.200890	-10.743460	-4.427506	-2.635965	 4.993658	 6.788941	-5.165319	 0.784187	 3.516649	-5.225038	 0.466231	 0.424329	-0.000002	-3.783157	-0.089647	-1.873839	 5.023242	 0.082187	 89.782110	 78.203900	 180.000000	-63.461870	 40.877820	 55.468160	 6.253557	 5.338297	 13.015460	 30.438990	-12.298310	 8.634261	 6.112037	 4.509576	-0.364401	 4.968462	 1.518543	-9.347576	 5.168945	 0.703820	 2.021906
-0.000382	 0.019752	 1.271265	 0.003638	 0.009218	-0.051798	-11.893470	-1.665288	 179.813400	 1.470173	-12.202700	-0.712831	-4.183815	 71.650150	-2.214327	-2.385833	 28.452760	 0.000004	 11.765680	-2.170998	-179.683000	-1.449000	-12.814310	 0.735969	 4.154737	 71.780380	 2.082917	 2.384658	 28.388730	 0.000004	 1.242474	 2.715299	 0.003128	 0.645642	 3.674613	 0.325555	-1.939475	-4.674745	-0.458462	-91.776180	 78.527470	 180.000000	 64.689540	 42.588840	-55.343910	-7.748571	 4.214743	-10.594940	-30.213710	-10.906060	-4.429922	-2.635965	 4.993658	 6.788941	-5.165319	 0.784187	 3.516649	-5.225038	 0.466231	 0.424329	-0.000002	-3.783157	-0.089647	-1.873824	 5.024067	 0.082200	 89.782100	 78.203890	 180.000000	-63.267350	 40.557100	 55.950470	 5.887477	 5.151964	 12.805050	 30.516800	-12.711130	 8.501143	 6.112037	 4.509576	-0.364401	 4.968462	 1.518543	-9.347576	 5.168945	 0.703820	 2.021906
-0.000380	 0.019755	 1.271288	 0.003640	 0.009214	-0.051798	-11.930330	-1.676235	 179.817100	 1.469876	-12.226110	-0.714239	-4.187621	 71.663090	-2.210364	-2.385833	 28.452760	 0.000004	 11.802530	-2.181438	-179.686500	-1.448705	-12.836870	 0.737307	 4.158797	 71.792830	 2.078654	 2.384658	 28.388730	 0.000004	 1.242463	 2.715773	 0.003114	 0.645621	 3.672980	 0.325562	-1.939413	-4.672676	-0.458406	-91.776190	 78.527490	-180.000000	 64.644870	 42.595300	-55.283480	-7.739216	 4.219818	-10.607840	-30.229750	-11.109030	-4.432968	-2.635965	 4.993658	 6.788941	-5.165319	 0.784187	 3.516649	-5.225038	 0.466231	 0.424329	-0.000002	-3.783157	-0.089647	-1.873815	 5.025084	 0.082216	 89.782120	 78.203890	 180.000000	-62.950530	 40.146290	 56.537590	 5.450816	 4.949257	 12.589480	 30.608780	-13.207800	 8.345101	 6.112037	 4.509576	-0.364401	 4.968462	 1.518543	-9.347576	 5.168945	 0.703820	 2.021906
-0.000377	 0.019760	 1.271319	 0.003641	 0.009212	-0.051783	-11.971530	-1.688587	 179.821200	 1.469543	-12.252490	-0.715830	-4.191940	 71.677700	-2.205882	-2.385833	 28.452760	 0.000004	 11.843700	-2.192870	-179.690400	-1.448380	-12.861570	 0.738775	 4.163225	 71.806450	 2.074003	 2.384658	 28.388730	 0.000004	 1.242445	 2.716304	 0.003092	 0.645593	 3.671148	 0.325560	-1.939343	-4.670338	-0.458324	-91.776210	 78.527430	-180.000000	 64.585640	 42.601420	-55.202240	-7.727572	 4.226227	-10.624190	-30.249230	-11.355740	-4.436785	-2.635965	 4.993658	 6.788941	-5.165319	 0.784187	 3.516649	-5.225038	 0.466231	 0.424329	-0.000002	-3.783157	-0.089647	-1.873795	 5.026144	 0.082233	 89.782150	 78.203850	 180.000000	-62.440320	 39.608670	 57.142620	 4.877380	 4.786745	 12.550520	 30.639600	-13.803710	 8.132008	 6.112037	 4.509576	-0.364401	 4.968462	 1.518543	-9.347576	 5.168945	 0.703820	 2.021906
-0.000375	 0.019765	 1.271351	 0.003636	 0.009201	-0.051790	-12.011900	-1.700598	 179.825300	 1.469210	-12.278160	-0.717378	-4.196062	 71.691890	-2.201554	-2.385833	 28.452760	 0.000004	 11.884140	-2.204358	-179.694300	-1.448052	-12.886360	 0.740248	 4.167736	 71.820110	 2.069283	 2.384658	 28.388730	 0.000004	 1.242431	 2.716824	 0.003081	 0.645571	 3.669401	 0.325579	-1.939284	-4.668087	-0.458270	-91.776190	 78.527450	-180.000000	 64.516890	 42.605810	-55.106600	-7.714993	 4.233429	-10.642530	-30.270040	-11.617950	-4.440930	-2.635965	 4.993658	 6.788941	-5.165319	 0.784187	 3.516649	-5.225038	 0.466231	 0.424329	-0.000002	-3.783157	-0.089647	-1.873746	 5.027178	 0.082248	 89.782150	 78.203890	 180.000000	-61.726910	 38.960250	 57.540790	 4.131865	 4.761974	 12.982960	 30.514930	-14.451410	 7.840453	 6.112037	 4.509576	-0.364401	 4.968462	 1.518543	-9.347576	 5.168945	 0.703820	 2.021906
-0.000372	 0.019772	 1.271378	 0.003638	 0.009197	-0.051789	-12.050740	-1.712124	 179.829200	 1.468897	-12.302800	-0.718863	-4.200104	 71.705540	-2.197357	-2.385833	 28.452760	 0.000004	 11.923000	-2.215230	-179.698000	-1.447737	-12.909870	 0.741648	 4.172019	 71.833070	 2.064818	 2.384658	 28.388730	 0.000004	 1.242403	 2.717324	 0.003067	 0.645539	 3.667673	 0.325629	-1.939216	-4.665886	-0.458217	-91.776120	 78.527470	 180.000000	 64.439610	 42.607320	-54.996430	-7.701604	 4.242191	-10.665020	-30.291460	-11.888460	-4.445295	-2.635965	 4.993658	 6.788941	-5.165319	 0.784187	 3.516649	-5.225038	 0.466231	 0.424329	-0.000002	-3.783157	-0.089647	-1.873724	 5.028238	 0.082264	 89.782160	 78.203850	 179.999900	-60.764700	 38.215860	 57.579040	 3.357951	 4.969912	 14.100370	 30.392770	-15.096490	 7.556534	 6.112037	 4.509576	-0.364401	 4.968462	 1.518543	-9.347576	 5.168945	 0.703820	 2.021906
-0.000370	 0.019783	 1.271414	 0.003647	 0.009201	-0.051785	-12.090870	-1.724164	 179.833200	 1.468564	-12.328490	-0.720408	-4.204269	 71.719750	-2.193003	-2.385833	 28.452760	 0.000004	 11.963140	-2.226577	-179.701800	-1.447414	-12.934330	 0.743098	 4.176453	 71.846550	 2.060174	 2.384658	 28.388730	 0.000004	 1.242371	 2.717841	 0.003052	 0.645504	 3.665880	 0.325607	-1.939119	-4.663623	-0.458133	-91.776260	 78.527450	-180.000000	 64.353870	 42.608320	-54.863480	-7.771382	 4.252122	-10.690260	-30.229530	-12.176030	-4.436408	-2.635965	 4.993658	 6.788941	-5.165319	 0.784187	 3.516649	-5.225038	 0.466231	 0.424329	-0.000002	-3.783157	-0.089647	-1.873689	 5.029304	 0.082280	 89.782070	 78.203890	-180.000000	-59.506880	 37.308780	 57.797930	 2.237671	 5.057046	 15.257610	 29.926880	-15.868470	 7.034775	 6.112037	 4.509576	-0.364401	 4.968462	 1.518543	-9.347576	 5.168945	 0.703820	 2.021906
-0.000367	 0.019796	 1.271460	 0.003647	 0.009200	-0.051740	-12.129130	-1.735439	 179.837000	 1.468257	-12.352600	-0.721863	-4.208192	 71.733120	-2.188904	-2.385833	 28.452760	 0.000004	 12.001440	-2.237170	-179.705500	-1.447106	-12.957200	 0.744460	 4.180631	 71.859180	 2.055815	 2.384658	 28.388730	 0.000004	 1.242341	 2.718332	 0.003017	 0.645472	 3.664212	 0.325590	-1.939046	-4.661479	-0.458053	-91.776260	 78.527470	-179.999900	 64.248630	 42.600720	-54.709340	-7.769559	 4.261613	-10.714440	-30.240300	-12.475620	-4.439379	-2.635965	 4.993658	 6.788941	-5.165319	 0.784187	 3.516649	-5.225038	 0.466231	 0.424329	-0.000002	-3.783157	-0.089647	-1.873646	 5.030332	 0.082295	 89.782100	 78.203850	 180.000000	-58.096760	 36.382210	 58.556720	 1.219282	 4.897521	 15.704600	 29.461530	-16.630480	 6.519498	 6.112037	 4.509576	-0.364401	 4.968462	 1.518543	-9.347576	 5.168945	 0.703820	 2.021906
